<?xml version="1.0" encoding="UTF-8"?>
<!DOCTYPE svg PUBLIC "-//W3C//DTD SVG 1.1//EN" "http://www.w3.org/Graphics/SVG/1.1/DTD/svg11.dtd">
<!-- Creator: CorelDRAW X7 -->
<svg xmlns="http://www.w3.org/2000/svg" xml:space="preserve" width="50.8mm" height="16.1866mm" version="1.1" style="shape-rendering:geometricPrecision; text-rendering:geometricPrecision; image-rendering:optimizeQuality; fill-rule:evenodd; clip-rule:evenodd"
viewBox="0 0 5138 1637"
 xmlns:xlink="http://www.w3.org/1999/xlink">
 <defs>
  <style type="text/css">
   <![CDATA[
    .fil0 {fill:#0D2361}
    .fil1 {fill:#FCB000}
    .fil2 {fill:#0D2361;fill-rule:nonzero}
   ]]>
  </style>
 </defs>
 <g id="Capa_x0020_1">
  <metadata id="CorelCorpID_0Corel-Layer"/>
  <g id="_492269805232">
   <path class="fil0" d="M980 467c86,0 156,69 156,156 0,86 -70,156 -156,156 -86,0 -156,-70 -156,-156 0,-87 70,-156 156,-156z"/>
   <path class="fil0" d="M1474 946c71,0 128,57 128,127 0,71 -57,128 -128,128 -70,0 -127,-57 -127,-128 0,-70 57,-127 127,-127z"/>
   <path class="fil0" d="M1014 937c70,0 127,57 127,127 0,71 -57,128 -127,128 -71,0 -128,-57 -128,-128 0,-70 57,-127 128,-127z"/>
   <path class="fil0" d="M544 937c71,0 128,57 128,127 0,71 -57,128 -128,128 -70,0 -127,-57 -127,-128 0,-70 57,-127 127,-127z"/>
   <path class="fil0" d="M99 0c55,0 100,44 100,99 0,55 -45,100 -100,100 -55,0 -99,-45 -99,-100 0,-55 44,-99 99,-99z"/>
   <path class="fil0" d="M107 456c54,0 99,44 99,99 0,55 -45,99 -99,99 -55,0 -100,-44 -100,-99 0,-55 45,-99 100,-99z"/>
   <path class="fil0" d="M104 1398c54,0 99,44 99,99 0,55 -45,99 -99,99 -55,0 -100,-44 -100,-99 0,-55 45,-99 100,-99z"/>
   <path class="fil0" d="M1508 1405c55,0 99,44 99,99 0,55 -44,99 -99,99 -55,0 -99,-44 -99,-99 0,-55 44,-99 99,-99z"/>
   <path class="fil0" d="M1047 1396c55,0 99,44 99,99 0,55 -44,99 -99,99 -55,0 -99,-44 -99,-99 0,-55 44,-99 99,-99z"/>
   <path class="fil0" d="M538 3c71,0 128,57 128,128 0,70 -57,127 -128,127 -70,0 -127,-57 -127,-127 0,-71 57,-128 127,-128z"/>
   <path class="fil0" d="M546 459c70,0 127,57 127,127 0,71 -57,128 -127,128 -71,0 -128,-57 -128,-128 0,-70 57,-127 128,-127z"/>
   <path class="fil0" d="M972 11c87,0 156,70 156,156 0,86 -69,156 -156,156 -86,0 -156,-70 -156,-156 0,-86 70,-156 156,-156z"/>
   <path class="fil0" d="M1440 476c87,0 156,70 156,156 0,86 -69,156 -156,156 -86,0 -156,-70 -156,-156 0,-86 70,-156 156,-156z"/>
   <path class="fil0" d="M1411 10c101,0 184,83 184,184 0,102 -83,185 -184,185 -102,0 -185,-83 -185,-185 0,-101 83,-184 185,-184z"/>
   <g>
    <path class="fil0" d="M2171 5l275 0 0 109 -210 0c-38,-1 -67,12 -72,69l0 512c7,45 32,66 65,71l217 0 0 109 -275 0c-80,0 -145,-71 -145,-157l0 -556c0,-86 65,-157 145,-157z"/>
    <polygon class="fil0" points="2621,5 2836,467 2836,886 2978,886 2978,449 3193,6 3193,5 3071,5 2908,343 2760,5 "/>
    <path class="fil0" d="M3721 421c49,21 82,55 82,128l0 200c0,102 -66,138 -147,138l-306 0 0 -882 306 0c81,0 147,66 147,147l0 137c0,58 -33,108 -82,132zm-249 63l164 0c30,0 55,27 55,61l0 187c0,33 -25,61 -55,61l-164 0 0 -309zm0 -382l164 0c30,0 55,25 55,55l0 150c0,30 -25,55 -55,55l-164 0 0 -260z"/>
    <path class="fil0" d="M4316 5l-132 0 -225 882 128 0 52 -225 221 0 48 225 130 0 -222 -882zm-152 550l89 -387 84 387 -173 0z"/>
    <path class="fil0" d="M4858 5l275 0 0 109 -210 0c-38,-1 -67,12 -73,69l0 512c8,45 32,66 66,71l217 0 0 109 -275 0c-80,0 -145,-71 -145,-157l0 -556c0,-86 65,-157 145,-157z"/>
   </g>
   <polygon class="fil1" points="2031,1069 5138,1069 5138,1637 2031,1637 "/>
   <path class="fil2" d="M2353 1314l-37 0 0 -23 101 0 0 23 -37 0 0 100 -27 0 0 -100zm78 -23l92 0 0 23 -65 0 0 27 59 0 0 21 -59 0 0 30 66 0 0 22 -93 0 0 -123zm193 42c0,-3 -1,-6 -3,-9 -2,-2 -4,-5 -6,-7 -2,-1 -5,-3 -8,-4 -3,-1 -6,-2 -10,-2 -6,0 -11,1 -15,4 -4,2 -8,5 -10,9 -3,4 -5,9 -6,14 -1,5 -2,10 -2,15 0,6 1,11 2,15 1,5 3,10 6,14 2,4 6,7 10,9 4,2 9,4 15,4 9,0 15,-3 20,-8 4,-5 7,-12 8,-20l26 0c0,8 -2,15 -5,21 -3,6 -7,11 -11,16 -5,4 -11,7 -17,10 -6,2 -13,3 -21,3 -9,0 -18,-1 -25,-5 -8,-3 -14,-8 -19,-13 -5,-6 -9,-13 -12,-21 -3,-7 -4,-16 -4,-25 0,-9 1,-17 4,-25 3,-8 7,-15 12,-21 5,-6 11,-10 19,-13 7,-4 16,-5 25,-5 7,0 13,1 19,2 7,2 12,5 17,9 4,4 8,8 11,14 4,5 5,12 6,19l-26 0zm46 -42l27 0 0 48 49 0 0 -48 27 0 0 123 -27 0 0 -53 -49 0 0 53 -27 0 0 -123zm127 0l27 0 51 83 1 0 0 -83 25 0 0 123 -27 0 -51 -82 -1 0 0 82 -25 0 0 -123zm149 62c0,6 1,11 2,15 1,5 3,10 6,14 3,4 6,7 10,9 4,2 10,4 16,4 6,0 11,-2 15,-4 4,-2 8,-5 11,-9 2,-4 4,-9 5,-14 1,-4 2,-9 2,-15 0,-5 -1,-10 -2,-15 -1,-5 -3,-10 -5,-14 -3,-4 -7,-7 -11,-9 -4,-3 -9,-4 -15,-4 -6,0 -12,1 -16,4 -4,2 -7,5 -10,9 -3,4 -5,9 -6,14 -1,5 -2,10 -2,15zm-27 0c0,-9 2,-17 4,-25 3,-8 7,-15 12,-21 6,-6 12,-10 19,-13 8,-4 16,-5 26,-5 9,0 18,1 25,5 8,3 14,7 19,13 5,6 9,13 12,21 3,8 4,16 4,25 0,9 -1,18 -4,25 -3,8 -7,15 -12,21 -5,5 -11,10 -19,13 -7,4 -16,5 -25,5 -10,0 -18,-1 -26,-5 -7,-3 -13,-8 -19,-13 -5,-6 -9,-13 -12,-21 -2,-7 -4,-16 -4,-25zm140 -62l27 0 0 101 59 0 0 22 -86 0 0 -123zm123 62c0,6 1,11 2,15 1,5 3,10 6,14 2,4 6,7 10,9 4,2 9,4 16,4 6,0 11,-2 15,-4 4,-2 8,-5 10,-9 3,-4 5,-9 6,-14 1,-4 2,-9 2,-15 0,-5 -1,-10 -2,-15 -1,-5 -3,-10 -6,-14 -2,-4 -6,-7 -10,-9 -4,-3 -9,-4 -15,-4 -7,0 -12,1 -16,4 -4,2 -8,5 -10,9 -3,4 -5,9 -6,14 -1,5 -2,10 -2,15zm-27 0c0,-9 2,-17 4,-25 3,-8 7,-15 12,-21 5,-6 12,-10 19,-13 8,-4 16,-5 26,-5 9,0 18,1 25,5 7,3 14,7 19,13 5,6 9,13 12,21 3,8 4,16 4,25 0,9 -1,18 -4,25 -3,8 -7,15 -12,21 -5,5 -12,10 -19,13 -7,4 -16,5 -25,5 -10,0 -18,-1 -26,-5 -7,-3 -14,-8 -19,-13 -5,-6 -9,-13 -12,-21 -2,-7 -4,-16 -4,-25zm228 47c-5,7 -10,11 -16,13 -6,3 -12,4 -18,4 -9,0 -18,-1 -25,-5 -8,-3 -14,-8 -19,-13 -5,-6 -9,-13 -12,-21 -3,-7 -4,-16 -4,-25 0,-9 1,-17 4,-25 3,-8 7,-15 12,-21 5,-6 11,-10 19,-13 7,-4 16,-5 25,-5 7,0 13,1 19,2 6,2 11,5 16,9 4,3 8,8 11,13 4,6 5,12 6,19l-26 0c-1,-7 -4,-12 -9,-16 -5,-3 -10,-5 -17,-5 -6,0 -11,1 -15,4 -4,2 -8,5 -10,9 -3,4 -5,9 -6,14 -1,5 -2,10 -2,15 0,6 1,11 2,15 1,5 3,10 6,14 2,4 6,7 10,9 4,2 9,4 15,4 9,0 16,-3 21,-7 5,-5 8,-11 9,-20l-28 0 0 -20 52 0 0 66 -17 0 -3 -14zm74 -33l-46 -76 31 0 29 49 28 -49 30 0 -45 76 0 47 -27 0 0 -47zm130 -76l87 0 0 23 -60 0 0 29 52 0 0 21 -52 0 0 50 -27 0 0 -123zm124 62c0,6 1,11 2,15 1,5 3,10 6,14 2,4 6,7 10,9 4,2 9,4 16,4 6,0 11,-2 15,-4 4,-2 8,-5 10,-9 3,-4 5,-9 6,-14 1,-4 2,-9 2,-15 0,-5 -1,-10 -2,-15 -1,-5 -3,-10 -6,-14 -2,-4 -6,-7 -10,-9 -4,-3 -9,-4 -15,-4 -7,0 -12,1 -16,4 -4,2 -8,5 -10,9 -3,4 -5,9 -6,14 -1,5 -2,10 -2,15zm-27 0c0,-9 2,-17 4,-25 3,-8 7,-15 12,-21 5,-6 12,-10 19,-13 8,-4 16,-5 26,-5 9,0 18,1 25,5 7,3 14,7 19,13 5,6 9,13 12,21 3,8 4,16 4,25 0,9 -1,18 -4,25 -3,8 -7,15 -12,21 -5,5 -12,10 -19,13 -7,4 -16,5 -25,5 -10,0 -18,-1 -26,-5 -7,-3 -14,-8 -19,-13 -5,-6 -9,-13 -12,-21 -2,-7 -4,-16 -4,-25zm166 -6l30 0c6,0 11,-1 14,-4 3,-3 4,-7 4,-13 0,-6 -1,-11 -4,-13 -3,-3 -8,-5 -14,-5l-30 0 0 35zm-27 -56l67 0c5,0 10,1 14,3 5,2 9,4 12,7 3,4 5,7 7,11 2,4 2,9 2,13 0,8 -1,14 -4,19 -3,5 -8,9 -15,12l0 1c3,0 6,2 8,4 2,2 4,4 6,7 1,2 2,5 3,8 0,3 1,6 1,9 0,2 0,4 0,7 0,3 1,5 1,8 0,3 1,5 1,8 1,2 2,5 3,6l-27 0c-1,-2 -1,-4 -2,-6 0,-2 0,-5 -1,-8 0,-2 0,-5 0,-7 -1,-3 -1,-6 -1,-8 -1,-7 -3,-11 -6,-14 -3,-3 -8,-5 -15,-5l-27 0 0 48 -27 0 0 -123zm199 50l28 0c5,0 8,-1 12,-3 3,-3 4,-6 4,-11 0,-3 0,-6 -1,-7 -1,-2 -3,-4 -4,-5 -2,-1 -4,-2 -6,-2 -3,0 -5,-1 -7,-1l-26 0 0 29zm-27 -50l58 0c6,0 11,1 16,2 5,1 9,3 13,5 3,2 6,6 8,9 1,4 2,9 2,15 0,6 -1,11 -4,15 -3,5 -7,8 -12,11 7,2 13,6 17,11 3,5 5,12 5,20 0,6 -1,11 -3,16 -3,4 -6,8 -10,11 -4,3 -9,5 -14,6 -5,2 -11,2 -16,2l-60 0 0 -123zm27 102l29 0c3,0 5,0 8,0 2,-1 4,-2 6,-3 2,-1 3,-3 5,-5 1,-2 1,-5 1,-8 0,-6 -2,-11 -5,-13 -4,-3 -8,-4 -14,-4l-30 0 0 33zm199 -25c0,17 -5,29 -14,37 -10,8 -22,12 -39,12 -16,0 -29,-4 -38,-12 -10,-8 -14,-20 -14,-37l0 -77 27 0 0 77c0,3 0,6 1,10 0,3 2,6 3,8 2,3 5,5 8,6 3,2 8,3 13,3 10,0 16,-3 20,-7 4,-4 6,-11 6,-20l0 -77 27 0 0 77zm41 6c0,4 1,7 3,10 1,3 3,5 5,7 3,2 6,3 9,4 3,1 7,1 10,1 3,0 5,0 8,0 3,-1 6,-2 8,-3 2,-1 4,-2 6,-4 2,-2 2,-5 2,-8 0,-3 -1,-6 -3,-8 -2,-2 -5,-4 -8,-5 -4,-2 -7,-3 -12,-4 -4,-1 -9,-2 -13,-3 -5,-1 -9,-3 -13,-5 -5,-1 -9,-3 -12,-6 -4,-3 -6,-6 -9,-10 -2,-4 -3,-9 -3,-14 0,-7 2,-12 4,-17 3,-4 7,-8 11,-11 4,-3 9,-6 15,-7 5,-2 11,-2 16,-2 7,0 13,0 19,2 6,1 11,3 15,7 5,3 9,7 11,12 3,5 4,11 4,18l-26 0c0,-4 -1,-7 -2,-9 -1,-2 -3,-4 -5,-6 -2,-1 -5,-2 -8,-3 -3,0 -6,0 -9,0 -2,0 -4,0 -7,0 -2,1 -4,2 -5,3 -2,1 -4,2 -5,4 -1,2 -2,4 -2,6 0,3 1,5 2,6 1,2 3,3 5,4 3,2 7,3 11,4 5,1 11,3 19,5 2,0 4,1 6,2 2,0 5,1 8,2 2,1 5,3 8,4 2,2 5,4 7,7 2,2 4,5 5,9 2,3 3,7 3,12 0,5 -2,11 -4,16 -2,4 -5,8 -9,12 -5,3 -10,6 -16,8 -7,2 -14,3 -23,3 -6,0 -13,-1 -19,-2 -7,-2 -12,-5 -17,-8 -5,-4 -9,-8 -12,-14 -3,-5 -4,-12 -4,-19l26 0zm94 -83l27 0 0 123 -27 0 0 -123zm50 0l27 0 51 83 1 0 0 -83 25 0 0 123 -27 0 -51 -82 0 0 0 82 -26 0 0 -123zm128 0l92 0 0 23 -65 0 0 27 59 0 0 21 -59 0 0 30 66 0 0 22 -93 0 0 -123zm130 83c0,4 0,7 2,10 1,3 3,5 6,7 2,2 5,3 8,4 4,1 7,1 11,1 2,0 5,0 8,0 2,-1 5,-2 7,-3 3,-1 5,-2 6,-4 2,-2 3,-5 3,-8 0,-3 -1,-6 -3,-8 -3,-2 -5,-4 -9,-5 -3,-2 -7,-3 -11,-4 -5,-1 -9,-2 -14,-3 -4,-1 -9,-3 -13,-5 -5,-1 -8,-3 -12,-6 -3,-3 -6,-6 -8,-10 -2,-4 -3,-9 -3,-14 0,-7 1,-12 4,-17 2,-4 6,-8 10,-11 5,-3 10,-6 15,-7 6,-2 11,-2 17,-2 6,0 12,0 18,2 6,1 11,3 16,7 4,3 8,7 11,12 2,5 4,11 4,18l-26 0c-1,-4 -1,-7 -3,-9 -1,-2 -3,-4 -5,-6 -2,-1 -5,-2 -8,-3 -2,0 -5,0 -9,0 -2,0 -4,0 -6,0 -2,1 -4,2 -6,3 -2,1 -3,2 -5,4 -1,2 -1,4 -1,6 0,3 0,5 1,6 1,2 3,3 6,4 2,2 6,3 11,4 5,1 11,3 18,5 2,0 4,1 6,2 3,0 5,1 8,2 3,1 5,3 8,4 3,2 5,4 7,7 3,2 4,5 6,9 1,3 2,7 2,12 0,5 -1,11 -3,16 -3,4 -6,8 -10,12 -4,3 -10,6 -16,8 -6,2 -14,3 -22,3 -7,0 -14,-1 -20,-2 -6,-2 -12,-5 -17,-8 -5,-4 -8,-8 -11,-14 -3,-5 -5,-12 -5,-19l27 0zm111 0c0,4 1,7 3,10 1,3 3,5 5,7 3,2 6,3 9,4 3,1 7,1 10,1 3,0 5,0 8,0 3,-1 6,-2 8,-3 2,-1 4,-2 6,-4 2,-2 2,-5 2,-8 0,-3 -1,-6 -3,-8 -2,-2 -5,-4 -8,-5 -4,-2 -7,-3 -12,-4 -4,-1 -9,-2 -13,-3 -5,-1 -9,-3 -14,-5 -4,-1 -8,-3 -11,-6 -4,-3 -6,-6 -9,-10 -2,-4 -3,-9 -3,-14 0,-7 2,-12 4,-17 3,-4 7,-8 11,-11 4,-3 9,-6 15,-7 5,-2 11,-2 16,-2 7,0 13,0 19,2 6,1 11,3 15,7 5,3 9,7 11,12 3,5 4,11 4,18l-26 0c0,-4 -1,-7 -2,-9 -1,-2 -3,-4 -5,-6 -3,-1 -5,-2 -8,-3 -3,0 -6,0 -9,0 -2,0 -4,0 -7,0 -2,1 -4,2 -5,3 -2,1 -4,2 -5,4 -1,2 -2,4 -2,6 0,3 1,5 2,6 1,2 3,3 5,4 3,2 7,3 11,4 5,1 11,3 19,5 2,0 3,1 6,2 2,0 5,1 8,2 2,1 5,3 8,4 2,2 5,4 7,7 2,2 4,5 5,9 2,3 3,7 3,12 0,5 -2,11 -4,16 -2,4 -5,8 -9,12 -5,3 -10,6 -16,8 -7,2 -14,3 -23,3 -6,0 -13,-1 -19,-2 -7,-2 -12,-5 -17,-8 -5,-4 -9,-8 -12,-14 -3,-5 -4,-12 -4,-19l26 0z"/>
  </g>
 </g>
</svg>
