<?xml version="1.0" encoding="UTF-8"?> <svg xmlns="http://www.w3.org/2000/svg" width="189" height="55" viewBox="0 0 189 55" fill="none"><path d="M19.6729 15.1267H14.1964L15.4596 10.5013C16.8268 5.50408 13.2488 0.526367 8.2906 0.526367L0.293293 29.7692C-1.07284 34.7665 2.50513 39.7442 7.46333 39.7442L11.7211 24.1768L12.5722 21.0628C13.4895 17.7104 16.3779 15.3207 19.6729 15.1267Z" fill="url(#paint0_linear_110_1033)"></path><path d="M35.2067 15.1437L35.4019 14.4248C36.7615 9.42108 33.177 4.44336 28.2145 4.44336L25.3586 15.1263H19.6718C16.3768 15.3204 13.4917 17.71 12.5712 21.0636L11.72 24.1775H22.8876L18.6266 39.7449H18.6667L17.3971 44.3876C16.0309 49.3849 19.6089 54.3626 24.5671 54.3626L32.8246 24.1699H36.8569C40.3265 24.1699 43.3818 21.7586 44.3381 18.2587L45.1903 15.1437H35.2067Z" fill="url(#paint1_linear_110_1033)"></path><path d="M60.1998 18.0342L58.5138 26.8837H68.7305L70.4165 18.0342H74.4965L70.2853 40.2382H66.201L68.0605 30.466H57.8286L55.9854 40.2382H51.9282L56.1393 18.0342H60.1998Z" fill="#606060"></path><path d="M74.7254 40.2386L77.7754 24.192H81.8358L78.7859 40.2386H74.7254ZM78.3619 19.7369C78.3619 18.2634 79.5275 17.3516 80.8036 17.3516C82.0407 17.3516 82.9808 18.1691 82.9949 19.4832C82.9808 20.9219 81.8813 21.8446 80.4827 21.8446C79.2889 21.8468 78.3619 21.0011 78.3619 19.7347V19.7369Z" fill="#606060"></path><path d="M83.8585 42.9244C84.8831 43.5478 86.9215 43.9598 88.6291 43.9598C91.1608 43.9598 93.3531 42.9319 94.2205 38.8747L94.587 37.2115H94.5068C93.1591 39.1014 91.3712 40.1216 89.0748 40.1216C85.487 40.1216 83.4367 37.2386 83.4367 34.1236C83.4367 28.6201 87.6544 23.7996 94.5859 23.7996C96.8574 23.7996 99.0421 24.2864 100.705 24.9922L98.32 38.0496C97.7237 41.2124 96.7739 43.847 94.7876 45.4224C92.9541 46.8666 90.5005 47.2147 88.4936 47.2147C86.1593 47.2147 84.0678 46.7647 82.874 46.0318L83.8585 42.9244ZM96.2968 27.3992C95.8295 27.1824 94.8548 26.9395 93.8595 26.9395C90.3238 26.9395 87.7693 30.0708 87.7693 33.6444C87.7693 35.3954 88.6194 36.9958 90.7065 36.9958C92.7232 36.9958 94.8906 34.8371 95.5053 31.5399L96.2968 27.3992Z" fill="#606060"></path><path d="M102.229 40.2385L106.702 16.6543H110.764L108.831 26.6802H108.896C110.345 24.9368 112.282 23.8016 114.709 23.8016C117.001 23.8016 119.134 25.1482 119.134 28.4323C119.119 29.3615 119.029 30.2879 118.865 31.2025L117.152 40.2385H113.092L114.728 31.5853C114.869 30.8996 114.942 30.2015 114.945 29.5014C114.945 28.1472 114.32 27.09 112.674 27.09C110.614 27.09 108.304 29.4504 107.623 33.113L106.289 40.2385H102.229Z" fill="#606060"></path><path d="M129.933 19.7375L129.104 24.1916H132.891L132.263 27.3608H128.476L127.328 33.2157C127.168 33.9822 127.002 34.8875 127.002 35.6769C127.002 36.5172 127.38 37.1569 128.513 37.1569C128.974 37.1633 129.435 37.1292 129.891 37.0549L129.521 40.2719C128.992 40.4941 127.895 40.6307 126.89 40.6307C124.05 40.6307 122.854 39.0911 122.854 37.2577C122.854 36.2819 122.963 35.3657 123.216 34.1036L124.534 27.364H122.29L122.896 24.1916H125.14L125.79 20.6863L129.933 19.7375Z" fill="#606060"></path><path d="M146.274 39.2564C144.59 40.1585 142.132 40.6312 140.094 40.6312C135.4 40.6312 132.997 37.8642 132.997 33.729C132.997 28.7686 136.901 23.7996 142.647 23.7996C145.977 23.7996 148.32 25.5625 148.32 28.4704C148.32 32.5851 143.744 33.8114 136.935 33.6412C136.882 34.2321 137.072 35.2187 137.423 35.8096C138.142 36.9253 139.421 37.4501 141.021 37.4501C142.71 37.4645 144.378 37.0827 145.893 36.3355L146.274 39.2564ZM142.131 26.7476C139.413 26.7476 137.751 29.0332 137.343 30.6508C141.822 30.692 144.414 30.2605 144.414 28.4108C144.414 27.3927 143.477 26.7476 142.131 26.7476Z" fill="#606060"></path><path d="M162.209 39.5719C161.133 40.1064 159.281 40.6312 157.005 40.6312C152.776 40.6312 149.913 38.1017 149.913 33.9794C149.913 28.2807 154.485 23.7996 160.729 23.7996C162.333 23.7996 163.791 24.204 164.498 24.5336L163.445 27.6204C162.775 27.3081 161.901 27.0382 160.632 27.0382C156.634 27.0382 154.198 30.2605 154.198 33.5295C154.198 36.0308 155.803 37.3763 158.112 37.3763C159.454 37.3808 160.779 37.0754 161.983 36.484L162.209 39.5719Z" fill="#606060"></path><path d="M164.843 40.2385L169.317 16.6543H173.378L171.445 26.6802H171.511C172.961 24.9368 174.896 23.8016 177.323 23.8016C179.617 23.8016 181.748 25.1482 181.748 28.4323C181.733 29.3615 181.643 30.2879 181.479 31.2025L179.766 40.2385H175.709L177.345 31.5853C177.487 30.8997 177.56 30.2015 177.562 29.5014C177.562 28.1472 176.939 27.09 175.293 27.09C173.233 27.09 170.922 29.4504 170.241 33.113L168.903 40.2385H164.843Z" fill="#606060"></path><path d="M189 19.6497C189 21.3302 187.648 22.6649 185.931 22.6649C184.213 22.6649 182.843 21.3302 182.843 19.6497C182.843 17.9691 184.213 16.6528 185.949 16.6528C187.648 16.6528 189 17.968 189 19.6497ZM183.61 19.6497C183.61 20.9833 184.615 22.0436 185.949 22.0436C187.25 22.061 188.233 20.9833 188.233 19.6681C188.233 18.3334 187.247 17.2557 185.912 17.2557C184.615 17.2535 183.61 18.3377 183.61 19.6497ZM185.453 21.2023H184.76V18.2055C185.14 18.1482 185.525 18.1177 185.91 18.1144C186.477 18.1144 186.733 18.2055 186.933 18.3518C187.034 18.4249 187.114 18.5214 187.169 18.633C187.223 18.7445 187.249 18.8676 187.245 18.9915C187.245 19.3569 186.97 19.5944 186.623 19.7039V19.7407C186.915 19.8318 187.057 20.066 187.152 20.4715C187.19 20.7241 187.263 20.9701 187.369 21.2023H186.639C186.547 21.0939 186.493 20.8369 186.401 20.4715C186.347 20.1614 186.164 20.015 185.78 20.015H185.455L185.453 21.2023ZM185.472 19.5217H185.797C186.181 19.5217 186.492 19.3938 186.492 19.0826C186.492 18.8094 186.29 18.6261 185.852 18.6261C185.723 18.6233 185.595 18.6357 185.469 18.663L185.472 19.5217Z" fill="#606060"></path><defs><linearGradient id="paint0_linear_110_1033" x1="15.9908" y1="12.2751" x2="0.234742" y2="27.539" gradientUnits="userSpaceOnUse"><stop stop-color="#00F3B6"></stop><stop offset="1" stop-color="#009ED6"></stop></linearGradient><linearGradient id="paint1_linear_110_1033" x1="17604.4" y1="26985.8" x2="7569.47" y2="27595.8" gradientUnits="userSpaceOnUse"><stop stop-color="#00F3B6"></stop><stop offset="1" stop-color="#009ED6"></stop></linearGradient></defs></svg> 